<svg id="Layer_1" enable-background="new 0 0 66 66" height="512" viewBox="0 0 66 66" width="512" xmlns="http://www.w3.org/2000/svg"><g><g><path d="m5.5 39.4c-1.6 0-2.9-1.2-2.9-2.6 0-1.5 1.2-2.6 2.9-2.6s2.9 1.1 2.9 2.6-1.2 2.6-2.9 2.6zm0-3.2c-.5 0-.9.3-.9.6s.4.6.9.6.9-.3.9-.6-.4-.6-.9-.6z"/></g><g><path d="m34.5 44c-5.1 0-9.3-4.2-9.3-9.3v-3.5c0-.6.4-1 1-1s1 .4 1 1v3.5c0 4 3.3 7.3 7.3 7.3s7.3-3.3 7.3-7.3l-.1-4.6c0-.6.4-1 1-1 .5 0 1 .4 1 1l.1 4.6c0 5.1-4.2 9.3-9.3 9.3z"/></g><g><g><path d="m46.1 65h-23.3c-3 0-5.3-2.3-5.3-5.3v-1.4c0-2.2.7-4.4 2.1-6.2s3.4-3 5.5-3.6h.2c1.2 0 2.3-.6 3-1.6.4-.6.6-1.3.6-1.9v-3.2c0-.6.4-1 1-1s1 .4 1 1v3.2c0 1.1-.4 2.2-1 3.1-1 1.5-2.7 2.4-4.5 2.4-1.6.4-3.1 1.4-4.3 2.8-1.1 1.5-1.7 3.2-1.7 5v1.4c0 1.9 1.4 3.3 3.3 3.3h23.3c1.9 0 3.3-1.4 3.3-3.3v-1.4c0-1.8-.6-3.5-1.7-5-1-1.4-2.5-2.3-4.2-2.8-1.8 0-3.3-.9-4.5-2.4-.6-.9-1-2-1-3.1v-3.2c0-.6.4-1 1-1s1 .4 1 1v3.2c0 .7.2 1.4.6 1.9.5.7 1.5 1.6 3 1.6h.2c2.2.6 4.1 1.8 5.5 3.6s2.1 4 2.1 6.2v1.4c.1 3-2.2 5.3-5.2 5.3z"/></g></g><g><path d="m30.1 33.2c-1.4 0-2.9-.3-4.4-1.1-.3-.2-.5-.5-.5-.9 0-5.1 4.2-9.3 9.3-9.3s9.3 4.2 9.3 9.3c0 .3-.1.6-.4.8s-.5.3-.8.2l-5.2-1.2c-.1 0-.7.3-1.1.5-1.4.7-3.7 1.7-6.2 1.7zm-2.9-2.6c3.2 1.5 6.2 0 8.2-.9.9-.4 1.6-.7 2.1-.7h.1l4 .9c-.6-3.4-3.6-6-7.2-6-3.7 0-6.9 3-7.2 6.7z"/></g><g><path d="m34.5 51.6c-.9 0-1.9-.3-2.7-.9l-3.3-2.4c-.4-.3-.5-1-.2-1.4s1-.5 1.4-.2l3.3 2.4c.9.7 2.2.7 3.1 0l3.3-2.4c.4-.3 1.1-.2 1.4.2s.2 1.1-.2 1.4l-3.3 2.4c-.8.6-1.8.9-2.8.9z"/></g><g><path d="m34.5 16.8c-.2 0-.4-.1-.6-.2-.2-.2-.4-.5-.4-.8v-11.1c0-.5.3-.9.8-1l11-2.7c.3-.1.6 0 .9.2.2.2.4.5.4.8v11c0 .5-.3.9-.8 1l-11 2.8c-.1 0-.2 0-.3 0zm1-11.3v9l9-2.3v-8.9z"/></g><g><path d="m34.5 16.8c-.1 0-.2 0-.2 0l-11-2.8c-.4-.1-.8-.5-.8-1v-11c0-.3.1-.6.4-.8.2-.2.5-.2.8-.2l11 2.7c.4.1.8.5.8 1v11.1c0 .3-.1.6-.4.8-.2.1-.4.2-.6.2zm-10-4.6 9 2.3v-9l-9-2.2z"/></g><g><path d="m7.4 37.3c-.6 0-1-.4-1-1v-8c0-.4.3-.8.7-1l7.9-2.4c.3-.1.6 0 .9.2s.4.5.4.8v8c0 .6-.4 1-1 1s-1-.4-1-1v-6.7l-5.9 1.8v7.3c0 .6-.4 1-1 1z"/></g><g><path d="m13.4 37.1c-1.6 0-2.9-1.2-2.9-2.6 0-1.5 1.2-2.6 2.9-2.6 1.6 0 2.9 1.2 2.9 2.6 0 1.5-1.2 2.6-2.9 2.6zm0-3.2c-.5 0-.9.3-.9.6s.4.6.9.6.9-.3.9-.6-.4-.6-.9-.6z"/></g><g><path d="m62.3 38.4h-10.8c-.6 0-1-.4-1-1v-10.4c0-.6.4-1 1-1h10.8c.6 0 1 .4 1 1v10.4c0 .6-.4 1-1 1zm-9.8-2h8.8v-8.4h-8.8z"/></g><g><path d="m55.1 35.3c-.2 0-.4 0-.5-.1-.3-.2-.5-.5-.5-.9v-4.3c0-.4.2-.7.5-.9s.7-.2 1 0l4.2 2.2c.3.2.5.5.5.9s-.2.7-.6.9l-4.2 2.1c-.1.1-.2.1-.4.1zm1-3.6v1l1-.5z"/></g><g><path d="m9.8 24.4c-.1 0-.2 0-.3 0-.5-.2-.8-.7-.7-1.2 1.5-5.4 4.9-10.2 9.6-13.4.5-.3 1.1-.2 1.4.2.3.5.2 1.1-.2 1.4-4.3 3-7.4 7.4-8.8 12.4-.2.3-.6.6-1 .6z"/></g><g><path d="m21.6 52.4c-.2 0-.3 0-.5-.1-4.8-2.5-8.8-6.7-11-11.7-.2-.5 0-1.1.5-1.3s1.1 0 1.3.5c2.1 4.6 5.7 8.4 10.2 10.7.5.3.7.9.4 1.3-.2.4-.5.6-.9.6z"/></g><g><path d="m46 51.5c-.3 0-.7-.2-.8-.5-.3-.5-.2-1.1.3-1.4 3.5-2.2 6.3-5.4 8.1-9 .2-.5.8-.7 1.3-.4.5.2.7.8.4 1.3-2 3.9-5.1 7.4-8.9 9.8 0 .1-.2.2-.4.2z"/></g><g><path d="m56.1 23.9c-.4 0-.8-.3-1-.7-1.1-3.5-3.1-6.8-5.8-9.4-.4-.4-.4-1 0-1.4s1-.4 1.4 0c2.8 2.8 5 6.4 6.2 10.2.2.5-.1 1.1-.6 1.3 0 0-.1 0-.2 0z"/></g><g><g><path d="m24.6 65c-.6 0-1-.4-1-1v-5.9c0-.6.4-1 1-1s1 .4 1 1v5.9c0 .6-.4 1-1 1z"/></g><g><path d="m44.4 65c-.6 0-1-.4-1-1v-5.9c0-.6.4-1 1-1s1 .4 1 1v5.9c0 .6-.4 1-1 1z"/></g></g></g></svg>