<svg id="Слой_1" enable-background="new 0 0 512 512" height="512" viewBox="0 0 512 512" width="512" xmlns="http://www.w3.org/2000/svg"><g fill="rgb(0,0,0)"><path d="m358.979 389.341v-373.178c0-8.926-7.236-16.163-16.163-16.163h-289.879c-8.927 0-16.163 7.236-16.163 16.163v373.178c0 8.927 7.237 16.163 16.163 16.163h289.879c8.927 0 16.163-7.236 16.163-16.163zm-32.326-16.163h-257.553v-340.851h257.553z"/><path d="m459.063 97.807h-58.385c-8.927 0-16.163 7.237-16.163 16.163s7.237 16.163 16.163 16.163h42.222v349.54h-264.303v-46.921c0-8.927-7.237-16.163-16.163-16.163s-16.163 7.236-16.163 16.163v63.084c0 8.927 7.237 16.163 16.163 16.163h296.629c8.927 0 16.163-7.237 16.163-16.163v-381.866c0-8.927-7.236-16.163-16.163-16.163z"/><path d="m131.681 126.133h123.164c8.927 0 16.163-7.237 16.163-16.163s-7.236-16.163-16.163-16.163h-123.164c-8.927 0-16.163 7.237-16.163 16.163s7.237 16.163 16.163 16.163z"/><path d="m131.681 199.148h123.164c8.927 0 16.163-7.237 16.163-16.163s-7.236-16.163-16.163-16.163h-123.164c-8.927 0-16.163 7.237-16.163 16.163s7.237 16.163 16.163 16.163z"/><path d="m131.681 272.163h123.164c8.927 0 16.163-7.236 16.163-16.163s-7.236-16.163-16.163-16.163h-123.164c-8.927 0-16.163 7.237-16.163 16.163 0 8.927 7.237 16.163 16.163 16.163z"/></g></svg>